<?xml version="1.0" encoding="iso-8859-1"?>
<!-- Uploaded to: SVG Repo, www.svgrepo.com, Generator: SVG Repo Mixer Tools -->
<svg fill="#000000" height="800px" width="800px" version="1.1" id="Layer_1" xmlns="http://www.w3.org/2000/svg" xmlns:xlink="http://www.w3.org/1999/xlink" 
	 viewBox="0 0 512 512" xml:space="preserve">
<g>
	<g>
		<path d="M418.472,38.481H33.67C15.105,38.481,0,53.586,0,72.151V362.89c0,18.566,15.105,33.67,33.67,33.67h179.574
			c4.427,0,8.017-3.589,8.017-8.017c0-4.427-3.589-8.017-8.017-8.017H33.67c-9.725,0-17.637-7.912-17.637-17.637V122.924h420.075
			v60.395c0,4.427,3.589,8.017,8.017,8.017c4.427,0,8.017-3.589,8.017-8.017V72.151C452.142,53.586,437.037,38.481,418.472,38.481z
			 M436.109,106.89H16.033V72.151c0-9.725,7.912-17.637,17.637-17.637h384.802c9.725,0,17.637,7.912,17.637,17.637V106.89z"/>
	</g>
</g>
<g>
	<g>
		<path d="M409.921,72.686H127.733c-4.427,0-8.017,3.589-8.017,8.017s3.589,8.017,8.017,8.017h282.188
			c4.427,0,8.017-3.589,8.017-8.017S414.348,72.686,409.921,72.686z"/>
	</g>
</g>
<g>
	<g>
		<path d="M119.182,166.748H67.875c-4.427,0-8.017,3.589-8.017,8.017s3.589,8.017,8.017,8.017h51.307
			c4.427,0,8.017-3.589,8.017-8.017S123.609,166.748,119.182,166.748z"/>
	</g>
</g>
<g>
	<g>
		<path d="M213.244,200.953h-42.756c-4.427,0-8.017,3.589-8.017,8.017s3.589,8.017,8.017,8.017h42.756
			c4.427,0,8.017-3.589,8.017-8.017S217.672,200.953,213.244,200.953z"/>
	</g>
</g>
<g>
	<g>
		<path d="M84.977,252.26H67.875c-4.427,0-8.017,3.589-8.017,8.017s3.589,8.017,8.017,8.017h17.102c4.427,0,8.017-3.589,8.017-8.017
			S89.404,252.26,84.977,252.26z"/>
	</g>
</g>
<g>
	<g>
		<path d="M84.977,286.465H67.875c-4.427,0-8.017,3.589-8.017,8.017s3.589,8.017,8.017,8.017h17.102
			c4.427,0,8.017-3.589,8.017-8.017S89.404,286.465,84.977,286.465z"/>
	</g>
</g>
<g>
	<g>
		<path d="M170.489,286.465h-51.307c-4.427,0-8.017,3.589-8.017,8.017s3.589,8.017,8.017,8.017h51.307
			c4.427,0,8.017-3.589,8.017-8.017S174.916,286.465,170.489,286.465z"/>
	</g>
</g>
<g>
	<g>
		<path d="M170.489,320.669h-51.307c-4.427,0-8.017,3.589-8.017,8.017s3.589,8.017,8.017,8.017h51.307
			c4.427,0,8.017-3.589,8.017-8.017S174.916,320.669,170.489,320.669z"/>
	</g>
</g>
<g>
	<g>
		<path d="M196.142,252.26h-76.96c-4.427,0-8.017,3.589-8.017,8.017s3.589,8.017,8.017,8.017h76.96c4.427,0,8.017-3.589,8.017-8.017
			S200.569,252.26,196.142,252.26z"/>
	</g>
</g>
<g>
	<g>
		<path d="M84.977,320.669H67.875c-4.427,0-8.017,3.589-8.017,8.017s3.589,8.017,8.017,8.017h17.102
			c4.427,0,8.017-3.589,8.017-8.017S89.404,320.669,84.977,320.669z"/>
	</g>
</g>
<g>
	<g>
		<path d="M264.551,166.748H153.386c-4.427,0-8.017,3.589-8.017,8.017s3.589,8.017,8.017,8.017h111.165
			c4.427,0,8.017-3.589,8.017-8.017S268.979,166.748,264.551,166.748z"/>
	</g>
</g>
<g>
	<g>
		<path d="M136.284,200.953H67.875c-4.427,0-8.017,3.589-8.017,8.017s3.589,8.017,8.017,8.017h68.409
			c4.427,0,8.017-3.589,8.017-8.017S140.711,200.953,136.284,200.953z"/>
	</g>
</g>
<g>
	<g>
		<path d="M512,328.686c0-4.427-3.589-8.017-8.017-8.017h-0.777c-0.386-6.621-1.239-13.119-2.541-19.455l0.73-0.196
			c4.277-1.146,6.814-5.542,5.669-9.819c-1.146-4.277-5.544-6.813-9.819-5.669l-0.741,0.199c-2.081-6.251-4.605-12.3-7.531-18.113
			l0.686-0.397c3.834-2.214,5.148-7.117,2.934-10.951c-2.214-3.835-7.117-5.149-10.951-2.934l-0.71,0.41
			c-3.614-5.467-7.609-10.659-11.951-15.54l0.595-0.595c3.131-3.131,3.131-8.207,0-11.338c-3.131-3.13-8.207-3.131-11.338,0
			l-0.595,0.595c-4.88-4.342-10.072-8.337-15.54-11.95l0.41-0.71c2.214-3.834,0.9-8.737-2.934-10.951
			c-3.834-2.215-8.737-0.9-10.951,2.934l-0.397,0.686c-5.814-2.927-11.864-5.45-18.114-7.531l0.199-0.741
			c1.146-4.277-1.393-8.672-5.669-9.819c-4.273-1.147-8.672,1.392-9.819,5.669l-0.196,0.73c-6.336-1.302-12.834-2.155-19.455-2.541
			v-0.777c0-4.427-3.589-8.017-8.017-8.017s-8.017,3.589-8.017,8.017v0.777c-6.621,0.386-13.119,1.239-19.455,2.541l-0.196-0.73
			c-1.146-4.277-5.54-6.811-9.819-5.669c-4.277,1.146-6.814,5.542-5.668,9.819l0.199,0.741c-6.251,2.081-12.3,4.605-18.113,7.531
			l-0.397-0.686c-2.214-3.834-7.117-5.148-10.951-2.934c-3.834,2.214-5.148,7.117-2.934,10.951l0.41,0.71
			c-5.467,3.614-10.659,7.609-15.54,11.951l-0.595-0.595c-3.131-3.131-8.207-3.131-11.337,0c-3.131,3.131-3.131,8.207,0,11.337
			l0.595,0.595c-4.342,4.879-8.337,10.072-11.951,15.54l-0.71-0.41c-3.834-2.215-8.737-0.9-10.951,2.934
			c-2.214,3.834-0.9,8.737,2.934,10.951l0.686,0.397c-2.927,5.814-5.45,11.864-7.531,18.113l-0.741-0.199
			c-4.27-1.141-8.672,1.392-9.819,5.669c-1.146,4.277,1.392,8.672,5.668,9.819l0.73,0.196c-1.302,6.336-2.155,12.834-2.541,19.455
			h-0.776c-4.427,0-8.017,3.589-8.017,8.017s3.589,8.017,8.017,8.017h0.777c0.386,6.621,1.239,13.119,2.541,19.455l-0.73,0.196
			c-4.277,1.146-6.814,5.542-5.669,9.819c0.96,3.582,4.199,5.944,7.739,5.944c0.687,0,1.385-0.089,2.08-0.275l0.741-0.199
			c2.081,6.251,4.605,12.3,7.531,18.113l-0.686,0.397c-3.834,2.214-5.148,7.117-2.934,10.951c1.485,2.572,4.179,4.009,6.95,4.009
			c1.36,0,2.738-0.346,4.001-1.075l0.71-0.41c3.614,5.467,7.609,10.659,11.95,15.54l-0.595,0.595c-3.131,3.131-3.13,8.207,0,11.338
			c1.566,1.565,3.617,2.347,5.668,2.347s4.104-0.782,5.669-2.348l0.595-0.595c4.879,4.342,10.072,8.337,15.54,11.95l-0.41,0.71
			c-2.214,3.834-0.9,8.737,2.934,10.951c1.262,0.729,2.641,1.075,4.001,1.075c2.771,0,5.465-1.439,6.95-4.009l0.397-0.686
			c5.814,2.927,11.864,5.45,18.113,7.531l-0.199,0.74c-1.146,4.277,1.392,8.673,5.668,9.819c0.695,0.186,1.393,0.275,2.08,0.275
			c3.539,0,6.779-2.362,7.739-5.944l0.196-0.73c6.336,1.302,12.834,2.155,19.455,2.541v0.777c0,4.427,3.589,8.017,8.017,8.017
			s8.017-3.589,8.017-8.017v-0.777c6.621-0.386,13.119-1.238,19.455-2.541l0.196,0.73c0.96,3.582,4.199,5.944,7.739,5.944
			c0.687,0,1.385-0.089,2.08-0.275c4.277-1.146,6.814-5.542,5.668-9.819l-0.199-0.74c6.251-2.081,12.3-4.605,18.113-7.531
			l0.397,0.686c1.485,2.572,4.179,4.009,6.95,4.009c1.36,0,2.738-0.346,4.001-1.075c3.834-2.214,5.148-7.117,2.934-10.951
			l-0.41-0.71c5.467-3.614,10.66-7.609,15.54-11.951l0.595,0.595c1.565,1.565,3.617,2.348,5.668,2.348s4.103-0.782,5.668-2.348
			c3.131-3.131,3.131-8.207,0-11.337l-0.595-0.595c4.342-4.879,8.337-10.072,11.951-15.54l0.71,0.41
			c1.262,0.729,2.641,1.075,4.001,1.075c2.771,0,5.465-1.439,6.95-4.009c2.214-3.834,0.9-8.737-2.934-10.951l-0.686-0.397
			c2.927-5.814,5.45-11.864,7.531-18.113l0.74,0.199c0.695,0.186,1.393,0.275,2.08,0.275c3.539,0,6.779-2.362,7.739-5.944
			c1.146-4.277-1.392-8.673-5.668-9.819l-0.73-0.196c1.302-6.336,2.155-12.834,2.541-19.455h0.779v0.001
			C508.411,336.703,512,333.113,512,328.686z M367.165,448.936c-66.307,0-120.25-53.944-120.25-120.251s53.944-120.25,120.25-120.25
			s120.251,53.944,120.251,120.25S433.472,448.936,367.165,448.936z"/>
	</g>
</g>
<g>
	<g>
		<path d="M367.165,226.606c-56.287,0-102.079,45.792-102.079,102.079s45.792,102.079,102.079,102.079
			s102.079-45.792,102.079-102.079S423.452,226.606,367.165,226.606z M367.165,414.732c-47.446,0-86.046-38.6-86.046-86.046
			s38.6-86.046,86.046-86.046s86.046,38.6,86.046,86.046S414.611,414.732,367.165,414.732z"/>
	</g>
</g>
<g>
	<g>
		<path d="M367.165,260.811c-37.426,0-67.875,30.449-67.875,67.875c0,37.426,30.448,67.875,67.875,67.875
			c37.426,0,67.875-30.448,67.875-67.875C435.04,291.26,404.591,260.811,367.165,260.811z M367.165,380.527
			c-28.585,0-51.841-23.256-51.841-51.841s23.256-51.841,51.841-51.841c28.585,0,51.841,23.256,51.841,51.841
			S395.75,380.527,367.165,380.527z"/>
	</g>
</g>
<g>
	<g>
		<circle cx="42.221" cy="80.703" r="8.017"/>
	</g>
</g>
<g>
	<g>
		<circle cx="67.875" cy="80.703" r="8.017"/>
	</g>
</g>
<g>
	<g>
		<circle cx="93.528" cy="80.703" r="8.017"/>
	</g>
</g>
</svg>